<?xml version="1.0" encoding="UTF-8"?>
<svg xmlns="http://www.w3.org/2000/svg" width="1024" height="1024" viewBox="0 0 1024 1024">
  <defs>
    <linearGradient id="bg" x1="0" y1="0" x2="1" y2="1">
      <stop offset="0" stop-color="#0b1220"/>
      <stop offset="1" stop-color="#111827"/>
    </linearGradient>
    <linearGradient id="gold" x1="0" y1="0" x2="1" y2="1">
      <stop offset="0" stop-color="#f6e7b0"/>
      <stop offset="0.35" stop-color="#e7c86f"/>
      <stop offset="0.7" stop-color="#caa24a"/>
      <stop offset="1" stop-color="#f3e2a5"/>
    </linearGradient>
    <filter id="shadow" x="-25%" y="-25%" width="150%" height="150%">
      <feDropShadow dx="0" dy="22" stdDeviation="26" flood-color="#000000" flood-opacity="0.42"/>
    </filter>
  </defs>

  <rect x="0" y="0" width="1024" height="1024" rx="220" fill="url(#bg)"/>

  <!-- JC monogram -->
  <g filter="url(#shadow)" fill="none" stroke="url(#gold)" stroke-linecap="round" stroke-linejoin="round" stroke-width="128">
    <!-- J -->
    <path d="M316 292H512"/>
    <path d="M512 292V520c0 140-88 228-220 228-84 0-152-34-194-94"/>

    <!-- C -->
    <path d="M784 366c-54-76-132-122-234-122-170 0-304 136-304 306s134 306 304 306c102 0 180-46 234-122"/>
  </g>
</svg>
