<?xml version="1.0" encoding="UTF-8"?>
<svg xmlns="http://www.w3.org/2000/svg" width="1024" height="1024" viewBox="0 0 1024 1024">
  <defs>
    <linearGradient id="bg" x1="0" y1="0" x2="1" y2="1">
      <stop offset="0" stop-color="#0f172a"/>
      <stop offset="1" stop-color="#111827"/>
    </linearGradient>
    <linearGradient id="accent" x1="0" y1="0" x2="1" y2="1">
      <stop offset="0" stop-color="#4f46e5"/>
      <stop offset="1" stop-color="#06b6d4"/>
    </linearGradient>
    <filter id="shadow" x="-20%" y="-20%" width="140%" height="140%">
      <feDropShadow dx="0" dy="18" stdDeviation="24" flood-color="#000000" flood-opacity="0.45"/>
    </filter>
  </defs>

  <rect x="0" y="0" width="1024" height="1024" rx="220" fill="url(#bg)"/>

  <g filter="url(#shadow)">
    <path
      d="M356 270h214c98 0 170 56 170 146 0 70-42 116-112 136v8c82 14 130 70 130 150 0 106-80 170-198 170H356V270zm196 270c60 0 94-28 94-78 0-50-34-78-94-78H456v156h96zm18 300c72 0 112-32 112-92 0-60-40-92-112-92H456v184h114z"
      fill="url(#accent)"
    />
  </g>

  <circle cx="780" cy="260" r="32" fill="#f59e0b" opacity="0.95"/>
</svg>
