<?xml version="1.0" encoding="UTF-8"?>
<svg xmlns="http://www.w3.org/2000/svg" width="2732" height="2732" viewBox="0 0 2732 2732">
  <defs>
    <linearGradient id="bg" x1="0" y1="0" x2="1" y2="1">
      <stop offset="0" stop-color="#0b1220"/>
      <stop offset="1" stop-color="#111827"/>
    </linearGradient>
    <linearGradient id="gold" x1="0" y1="0" x2="1" y2="1">
      <stop offset="0" stop-color="#f6e7b0"/>
      <stop offset="0.35" stop-color="#e7c86f"/>
      <stop offset="0.7" stop-color="#caa24a"/>
      <stop offset="1" stop-color="#f3e2a5"/>
    </linearGradient>
    <filter id="shadow" x="-20%" y="-20%" width="140%" height="140%">
      <feDropShadow dx="0" dy="32" stdDeviation="40" flood-color="#000000" flood-opacity="0.5"/>
    </filter>
  </defs>

  <rect x="0" y="0" width="2732" height="2732" fill="url(#bg)"/>

  <g filter="url(#shadow)">
    <rect x="866" y="866" width="1000" height="1000" rx="220" fill="#0b1220" opacity="0.92"/>
    <g fill="none" stroke="url(#gold)" stroke-linecap="round" stroke-linejoin="round" stroke-width="132">
      <!-- J -->
      <path d="M1110 1160H1360"/>
      <path d="M1360 1160V1420c0 168-104 274-260 274-98 0-176-40-224-110"/>
      <!-- C -->
      <path d="M1750 1260c-70-98-174-156-308-156-220 0-392 176-392 396s172 396 392 396c134 0 238-58 308-156"/>
    </g>
  </g>

  <text x="1366" y="2270" text-anchor="middle" font-family="-apple-system, BlinkMacSystemFont, Segoe UI, Roboto, Helvetica, Arial, sans-serif" font-size="76" font-weight="900" fill="#e5e7eb">
    Jubilant Capital
  </text>
  <text x="1366" y="2366" text-anchor="middle" font-family="-apple-system, BlinkMacSystemFont, Segoe UI, Roboto, Helvetica, Arial, sans-serif" font-size="42" font-weight="700" fill="#94a3b8">
    LIRAS v4.06
  </text>
</svg>
