<?xml version="1.0" encoding="UTF-8"?>
<svg xmlns="http://www.w3.org/2000/svg" width="2732" height="2732" viewBox="0 0 2732 2732">
  <defs>
    <linearGradient id="bg" x1="0" y1="0" x2="1" y2="1">
      <stop offset="0" stop-color="#0b1220"/>
      <stop offset="1" stop-color="#111827"/>
    </linearGradient>
    <linearGradient id="accent" x1="0" y1="0" x2="1" y2="1">
      <stop offset="0" stop-color="#4f46e5"/>
      <stop offset="1" stop-color="#06b6d4"/>
    </linearGradient>
    <filter id="shadow" x="-20%" y="-20%" width="140%" height="140%">
      <feDropShadow dx="0" dy="32" stdDeviation="40" flood-color="#000000" flood-opacity="0.5"/>
    </filter>
  </defs>

  <rect x="0" y="0" width="2732" height="2732" fill="url(#bg)"/>

  <g filter="url(#shadow)">
    <rect x="866" y="866" width="1000" height="1000" rx="220" fill="#0f172a" opacity="0.92"/>
    <path
      d="M1060 1040h612c280 0 468 150 468 392 0 182-104 298-276 350v18c204 30 324 170 324 372 0 270-206 430-514 430H1060V1040zm560 780c156 0 246-74 246-206s-90-206-246-206h-254v412h254zm40 780c188 0 292-84 292-238 0-154-104-238-292-238h-294v476h294z"
      fill="url(#accent)"
    />
  </g>

  <text x="1366" y="2270" text-anchor="middle" font-family="-apple-system, BlinkMacSystemFont, Segoe UI, Roboto, Helvetica, Arial, sans-serif" font-size="84" font-weight="800" fill="#e5e7eb">
    Jubilant LIRAS
  </text>
  <text x="1366" y="2372" text-anchor="middle" font-family="-apple-system, BlinkMacSystemFont, Segoe UI, Roboto, Helvetica, Arial, sans-serif" font-size="42" font-weight="600" fill="#94a3b8">
    Offline-ready mobile app
  </text>
</svg>
